<?xml version="1.0"?>
<svg version="1.1" xmlns="http://www.w3.org/2000/svg" width="400" height="200" style="border: dashed 2px #aaa"><path fill="#" d="M16.99560546875,90.67626953125q0-0.392578125,0.376220703125-0.5888671875t0.81787109375-0.29443359375t0.801513671875-0.09814453125l0.35986328125,0q1.14501953125,0,1.652099609375,0.5234375t1.226806640625,1.34130859375q4.9072265625,7.09912109375,8.99658203125,14.607177734375t7.88427734375,15.196044921875q0.3271484375-8.9638671875,0.670654296875-18.042236328125t0.866943359375-18.009521484375q0-0.392578125,0.376220703125-0.654296875t0.8505859375-0.392578125t0.965087890625-0.16357421875t0.75244140625-0.03271484375q0.392578125,0,0.866943359375,0.03271484375t0.94873046875,0.1962890625t0.78515625,0.392578125t0.310791015625,0.62158203125q0.130859375,1.40673828125,0.147216796875,2.829833984375t0.016357421875,2.829833984375q0,10.5341796875-0.4580078125,20.64306640625t-0.4580078125,20.4140625l0,2.35546875q0,0.130859375-0.130859375,0.392578125q0.0654296875,0.26171875,0.1962890625,0.572509765625t0.130859375,0.441650390625q0,0.5234375-0.539794921875,0.78515625t-1.177734375,0.408935546875t-1.128662109375,0.147216796875t-0.35986328125,0q-1.66845703125,0-2.8134765625-0.916015625t-1.14501953125-2.19189453125q-2.4208984375-5.4306640625-4.825439453125-10.779541015625t-5.021728515625-10.648681640625q-1.66845703125-3.3369140625-3.353271484375-6.690185546875t-3.614990234375-6.493896484375q0.0654296875,0.0654296875,0.0654296875,0.1962890625q0.3271484375,3.271484375,0.703369140625,6.526611328125t0.572509765625,6.526611328125q0.130859375,2.8134765625,0.29443359375,5.6923828125t0.5234375,5.6923828125q0,1.07958984375-0.670654296875,1.3740234375t-1.553955078125,0.29443359375q-0.75244140625,0-1.423095703125-0.1962890625t-0.801513671875-0.9814453125q0-3.009765625-0.22900390625-6.395751953125t-0.42529296875-6.821044921875q-0.3271484375-4.54736328125-0.866943359375-9.241943359375t-0.539794921875-9.176513671875q0-0.1962890625,0.03271484375-0.408935546875t0.03271484375-0.474365234375q-0.1962890625-0.3271484375-0.441650390625-0.68701171875t-0.245361328125-0.654296875z M47.818549804687,156.28588867188q0.114501953125-0.474365234375,0.474365234375-0.736083984375t1.177734375-0.26171875q0.88330078125,0,1.66845703125,0.5234375t1.14501953125,1.27587890625q1.14501953125-1.79931640625,1.79931640625-4.1875t0.997802734375-4.97265625t0.408935546875-5.087158203125t0.0654296875-4.596435546875q0-6.57568359375,0.16357421875-12.92236328125t0.5234375-12.92236328125q0-0.4580078125,0.392578125-0.768798828125t0.899658203125-0.474365234375t1.046875-0.22900390625t0.932373046875-0.0654296875q0.75244140625,0,1.47216796875,0.1962890625t1.34130859375,0.5888671875l0.392578125,0.75244140625q-0.0654296875,4.67822265625-0.26171875,9.340087890625t-0.1962890625,9.274658203125q0,1.79931640625,0.0654296875,4.7109375q0.03271484375,0.94873046875,0.03271484375,1.962890625q0,2.0283203125-0.09814453125,4.2529296875q-0.130859375,3.3369140625-0.572509765625,6.722900390625t-1.439453125,6.134033203125t-2.71533203125,4.498291015625t-4.334716796875,1.750244140625q-1.14501953125,0-2.142822265625-0.278076171875t-1.782958984375-1.063232421875q-0.75244140625-0.654296875-1.07958984375-1.40673828125q-0.1962890625-0.4580078125-0.343505859375-0.997802734375t-0.03271484375-1.01416015625z M57.093208007812,103.95849609375l0-2.011962890625t0.22900390625-1.7666015625t0.866943359375-1.2431640625t1.848388671875-0.474365234375q0.4580078125,0,0.932373046875,0.0654296875t0.899658203125,0.26171875l0.7197265625,0.81787109375q0,0.94873046875,0.03271484375,2.09375l0,0.26171875q0,0.9814453125-0.1962890625,1.83203125q-0.22900390625,1.01416015625-0.834228515625,1.717529296875t-1.881103515625,0.703369140625q-1.01416015625,0-1.53759765625-0.29443359375t-1.01416015625-1.2431640625z M69.415908203125,92.017578125q0-1.53759765625,0.081787109375-3.04248046875t0.278076171875-2.97705078125q0.130859375-0.75244140625,1.161376953125-1.07958984375t1.717529296875-0.3271484375l0.78515625,0.0654296875q0.94873046875,0.130859375,1.913818359375-0.130859375t1.913818359375-0.26171875q2.224609375,0,4.97265625,0.49072265625t5.152587890625,1.66845703125t4.040283203125,3.091552734375t1.6357421875,4.727294921875t-1.701171875,5.250732421875t-4.28564453125,4.28564453125t-5.5615234375,2.895263671875t-5.46337890625,1.046875q0.26171875,6.31396484375,0.736083984375,12.52978515625t1.619384765625,12.431640625l0.0654296875,0.42529296875q0,0.4580078125-0.408935546875,0.75244140625t-0.965087890625,0.474365234375t-1.128662109375,0.245361328125t-0.932373046875,0.0654296875q-0.81787109375,0-1.979248046875-0.310791015625t-1.423095703125-1.226806640625q-0.75244140625-2.87890625-1.177734375-6.330322265625t-0.62158203125-7.213623046875t-0.278076171875-7.573486328125t-0.081787109375-7.442626953125l0-7.36083984375q0-1.21044921875-0.03271484375-2.51904296875t-0.03271484375-2.64990234375z M75.599013671875,86.7177734375q0,4.48193359375,0.09814453125,8.947509765625t0.22900390625,8.947509765625q1.93017578125-0.392578125,3.942138671875-1.390380859375t3.63134765625-2.371826171875t2.6171875-3.124267578125t0.997802734375-3.680419921875q0-1.73388671875-0.866943359375-3.10791015625t-2.240966796875-2.35546875q-1.34130859375-0.94873046875-3.04248046875-1.47216796875q-1.5048828125-0.4580078125-2.9443359375-0.4580078125l-0.35986328125,0z M99.764487304687,132.9111328125q0-0.94873046875,0.081787109375-1.99560546875t0.147216796875-1.962890625l0.1962890625-4.9072265625q0.3271484375-5.888671875,0.801513671875-11.5810546875t0.801513671875-11.515625q0.1962890625-3.2060546875,0.29443359375-6.297607421875t0.29443359375-6.297607421875q-0.130859375-0.26171875-0.130859375-0.35986328125q0-0.4580078125,0.343505859375-0.7197265625t0.801513671875-0.441650390625t0.965087890625-0.245361328125t0.768798828125-0.0654296875l0.75244140625,0q1.01416015625,0.130859375,1.47216796875,0.637939453125t0.5888671875,1.21044921875t0.0654296875,1.5048828125t-0.0654296875,1.488525390625q0,4.74365234375-0.22900390625,9.667236328125t-0.5234375,9.8798828125t-0.539794921875,9.91259765625t-0.245361328125,9.798095703125l0,2.2900390625q0,1.53759765625-0.866943359375,2.0283203125t-2.404541015625,0.49072265625q-1.34130859375,0-2.35546875-0.5888671875t-1.01416015625-1.93017578125z M114.7698046875,121.29736328125q0-2.224609375,0.605224609375-4.28564453125t1.815673828125-3.680419921875t3.026123046875-2.58447265625t4.203857421875-0.965087890625q1.47216796875,0,3.255126953125,0.441650390625t3.353271484375,1.30859375t2.6171875,2.208251953125t1.046875,3.0751953125q0,0.81787109375-0.278076171875,1.2431640625t-1.128662109375,0.42529296875l-0.35986328125-0.0654296875q0.94873046875,2.5517578125,1.6357421875,5.234375t1.34130859375,5.365234375q0.26171875,0.5234375,0.392578125,0.932373046875t0.130859375,0.801513671875q0,0.5234375-0.29443359375,0.866943359375t-0.768798828125,0.507080078125t-0.9814453125,0.22900390625t-0.899658203125,0.0654296875q-1.40673828125,0-2.110107421875-0.49072265625t-1.01416015625-1.34130859375t-0.376220703125-1.913818359375t-0.26171875-2.142822265625q-0.392578125,1.27587890625-1.030517578125,2.486328125t-1.5048828125,2.175537109375t-2.044677734375,1.53759765625t-2.64990234375,0.572509765625q-2.1591796875,0-3.63134765625-1.2431640625t-2.371826171875-3.058837890625t-1.30859375-3.876708984375t-0.408935546875-3.82763671875z M119.4153125,120.83935546875q0,1.21044921875,0.16357421875,2.5517578125t0.539794921875,2.64990234375t0.965087890625,2.469970703125t1.47216796875,2.044677734375q1.60302734375-1.73388671875,2.371826171875-4.22021484375t1.3740234375-4.792724609375t1.3740234375-3.95849609375t2.371826171875-1.652099609375q1.01416015625,0,1.701171875,0.35986328125q-0.3271484375-0.81787109375-1.07958984375-1.586669921875t-1.684814453125-1.40673828125t-1.93017578125-1.046875t-1.881103515625-0.408935546875q-0.26171875,0-0.605224609375,0.081787109375t-0.539794921875,0.016357421875q-1.34130859375,0.392578125-2.208251953125,1.357666015625t-1.40673828125,2.273681640625t-0.768798828125,2.6826171875t-0.22900390625,2.58447265625z M143.15549316406,121.4609375l0-0.94873046875q0-1.177734375,0.0654296875-2.224609375q0.0654296875-1.47216796875,0.0654296875-2.4208984375q0-0.5234375,0.0654296875-1.194091796875t0.3271484375-1.063232421875q0.3271484375-0.3271484375,0.768798828125-0.670654296875t0.965087890625-0.343505859375q1.66845703125,0,2.6171875,0.376220703125t1.01416015625,1.553955078125l0.130859375,1.01416015625q0.5888671875-1.40673828125,1.5703125-3.484130859375t2.273681640625-3.95849609375t2.91162109375-3.2060546875t3.418701171875-1.324951171875q1.66845703125,0,2.748046875,1.5703125t1.717529296875,4.007568359375t0.899658203125,5.4306640625t0.35986328125,5.872314453125t0.130859375,5.250732421875t0.22900390625,3.582275390625q0.130859375,1.01416015625,0.441650390625,2.142822265625t0.310791015625,2.077392578125q0,0.26171875-0.376220703125,0.507080078125t-0.801513671875,0.408935546875t-0.866943359375,0.26171875t-0.637939453125,0.09814453125q-1.27587890625,0-1.815673828125-1.913818359375t-0.670654296875-4.792724609375t-0.130859375-6.232177734375t-0.22900390625-6.232177734375t-0.932373046875-4.792724609375t-2.240966796875-1.979248046875q-1.40673828125,0-2.91162109375,1.815673828125t-2.58447265625,4.825439453125q-1.046875,3.009765625-1.439453125,6.83740234375q-0.130859375,1.21044921875-0.130859375,2.4208984375q0,2.64990234375,0.55615234375,5.2998046875q0.0654296875,0.4580078125-0.376220703125,0.68701171875t-1.095947265625,0.35986328125t-1.324951171875,0.16357421875t-1.030517578125,0.03271484375q-1.27587890625,0-2.044677734375-0.899658203125t-1.194091796875-2.306396484375t-0.572509765625-3.156982421875t-0.179931640625-3.451416015625z M172.88249023438,134.57958984375l0.68701171875-0.81787109375q-0.130859375-5.49609375-0.29443359375-10.95947265625t-0.16357421875-10.861328125q0-6.70654296875,0.801513671875-12.971435546875t1.586669921875-12.840576171875q0.0654296875-0.392578125,0.376220703125-0.637939453125t0.768798828125-0.408935546875t0.932373046875-0.22900390625t0.866943359375-0.0654296875q0.5234375,0,1.30859375,0.1962890625t1.5703125,1.14501953125q0,0.3271484375,0.049072265625,0.572509765625t0.049072265625,0.572509765625q0,2.486328125-0.670654296875,5.33251953125t-0.899658203125,5.46337890625q-0.26171875,3.2060546875-0.35986328125,6.3466796875t-0.09814453125,6.37939453125l0.0654296875,2.87890625q0.654296875-0.81787109375,1.86474609375-2.09375t2.6171875-2.469970703125t2.8134765625-2.044677734375t2.5517578125-0.8505859375q1.73388671875,0,2.404541015625,0.9814453125t0.670654296875,2.58447265625q0,1.47216796875-0.637939453125,3.0751953125t-1.66845703125,3.124267578125t-2.339111328125,2.731689453125t-2.58447265625,1.79931640625q1.73388671875,2.1591796875,3.549560546875,4.1220703125t3.974853515625,3.69677734375l0,0.75244140625q-0.0654296875,0.3271484375-0.408935546875,0.49072265625t-0.75244140625,0.26171875t-0.801513671875,0.147216796875t-0.654296875,0.049072265625q-1.60302734375,0-3.091552734375-0.94873046875t-2.78076171875-2.32275390625t-2.437255859375-2.91162109375t-2.09375-2.6826171875q0.1962890625,3.76220703125,0.441650390625,7.508056640625t0.245361328125,7.508056640625q0,0.4580078125-0.408935546875,0.768798828125t-0.94873046875,0.474365234375t-1.095947265625,0.22900390625t-0.916015625,0.0654296875q-1.93017578125,0-2.731689453125-0.703369140625t-1.357666015625-2.437255859375z M179.58903320313,119.1708984375q0.81787109375,0,1.946533203125-0.703369140625t2.339111328125-1.750244140625t2.25732421875-2.208251953125t1.684814453125-2.208251953125t0.637939453125-1.684814453125t-0.88330078125-0.572509765625q-0.3271484375,0-1.34130859375,0.94873046875t-2.25732421875,2.32275390625t-2.486328125,2.97705078125t-1.8974609375,2.87890625z"/><path fill="#" d=""/></svg>
